<svg xmlns="http://www.w3.org/2000/svg" viewBox="0 0 64 64"><defs><linearGradient id="metal" x2=".7" y2="1"><stop stop-color="#ced1cd"/><stop offset=".24" stop-color="#ee8e45"/><stop offset=".68" stop-color="#ee8e45"/><stop offset="1" stop-color="#30212b"/></linearGradient><linearGradient id="light" x2=".6" y2="1"><stop stop-color="#fff9ec"/><stop offset=".55" stop-color="#ced1cd"/><stop offset="1" stop-color="#ee8e45"/></linearGradient></defs><g transform="rotate(32 32 32)"><path d="M25 1H41V42H25Z" fill="url(#light)" stroke="#30212b" stroke-width="2" stroke-linejoin="round" stroke-linecap="round"/><path d="M25 4 19 7 25 10M41 4 47 7 41 10" fill="#ced1cd" stroke="#30212b" stroke-width="1" stroke-linejoin="round" stroke-linecap="round"/><path d="M25 10 19 13 25 16M41 10 47 13 41 16" fill="#ced1cd" stroke="#30212b" stroke-width="1" stroke-linejoin="round" stroke-linecap="round"/><path d="M25 16 19 19 25 22M41 16 47 19 41 22" fill="#ced1cd" stroke="#30212b" stroke-width="1" stroke-linejoin="round" stroke-linecap="round"/><path d="M25 22 19 25 25 28M41 22 47 25 41 28" fill="#ced1cd" stroke="#30212b" stroke-width="1" stroke-linejoin="round" stroke-linecap="round"/><path d="M25 28 19 31 25 34M41 28 47 31 41 34" fill="#ced1cd" stroke="#30212b" stroke-width="1" stroke-linejoin="round" stroke-linecap="round"/><path d="M25 34 19 37 25 40M41 34 47 37 41 40" fill="#ced1cd" stroke="#30212b" stroke-width="1" stroke-linejoin="round" stroke-linecap="round"/><path d="M16 39H48V59H16Z" fill="url(#metal)" stroke="#30212b" stroke-width="2" stroke-linejoin="round" stroke-linecap="round"/><path d="M20 43H29V55H20Z" fill="#30212b" stroke="#ced1cd" stroke-width="1" stroke-linejoin="round" stroke-linecap="round"/><path d="M33 44H43M33 48H43M33 52H43" fill="none" stroke="#30212b" stroke-width="1.5" stroke-linejoin="round" stroke-linecap="round"/><path d="M19 58 11 62" fill="none" stroke="#ced1cd" stroke-width="2" stroke-linejoin="round" stroke-linecap="round"/></g></svg>