<svg xmlns="http://www.w3.org/2000/svg" viewBox="0 0 240 360"><defs><linearGradient id="rim" x2="1" y2="1"><stop stop-color="#ced1cd"/><stop offset=".25" stop-color="#ee8e45"/><stop offset=".5" stop-color="#30212b"/><stop offset=".77" stop-color="#ee8e45"/><stop offset="1" stop-color="#ced1cd"/></linearGradient><pattern id="texture" width="32" height="32" patternUnits="userSpaceOnUse"><rect width="32" height="32" fill="#30212b"/><path d="M0 0H11L5 8L16 14L8 22L20 29L16 32H0ZM32 0V32H25L29 22L21 14L28 7L20 0Z" fill="#ced1cd"/><path d="M15 0 23 7 17 13 23 20 18 28" fill="none" stroke="#ee8e45" stroke-width="1.5" stroke-linecap="round" stroke-linejoin="round"/></pattern></defs><path d="M28 9H212L231 28V332L212 351H28L9 332V28Z" fill="none" stroke="#0d0a13" stroke-width="18"/><path d="M28 9H212L231 28V332L212 351H28L9 332V28Z" fill="none" stroke="url(#rim)" stroke-width="14"/><path d="M28 9H212L231 28V332L212 351H28L9 332V28Z" fill="none" stroke="url(#texture)" stroke-width="9"/><path d="M28 9H212L231 28V332L212 351H28L9 332V28Z" fill="none" stroke="#ced1cd" stroke-opacity=".3" stroke-width=".7"/><path d="M16 32L25 18L34 32" fill="none" stroke="#ee8e45" stroke-width="2"/><circle cx="25" cy="25" r="2" fill="#ced1cd"/><path d="M206 32L215 18L224 32" fill="none" stroke="#ee8e45" stroke-width="2"/><circle cx="215" cy="25" r="2" fill="#ced1cd"/><path d="M16 342L25 328L34 342" fill="none" stroke="#ee8e45" stroke-width="2"/><circle cx="25" cy="335" r="2" fill="#ced1cd"/><path d="M206 342L215 328L224 342" fill="none" stroke="#ee8e45" stroke-width="2"/><circle cx="215" cy="335" r="2" fill="#ced1cd"/></svg>