<svg xmlns="http://www.w3.org/2000/svg" viewBox="0 0 64 64"><defs><linearGradient id="metal" x2=".7" y2="1"><stop stop-color="#ef96c3"/><stop offset=".24" stop-color="#deb34d"/><stop offset=".68" stop-color="#deb34d"/><stop offset="1" stop-color="#352336"/></linearGradient><linearGradient id="light" x2=".6" y2="1"><stop stop-color="#fff9ec"/><stop offset=".55" stop-color="#ef96c3"/><stop offset="1" stop-color="#deb34d"/></linearGradient></defs><path d="M32 60C15 49 2 37 9 29C17 21 27 26 32 33C37 26 48 22 55 30C64 40 49 51 32 60Z" fill="#ef96c3" stroke="#352336" stroke-width="1.5" stroke-linejoin="round" stroke-linecap="round"/><ellipse cx="32" cy="25" rx="20" ry="23" fill="url(#metal)" stroke="#352336" stroke-width="2"/><circle cx="32" cy="8" r="8" fill="#352336" stroke="#ef96c3" stroke-width="1.4"/><path d="M32 13V46M24 5 20 1M40 5 44 1" fill="none" stroke="#352336" stroke-width="2" stroke-linejoin="round" stroke-linecap="round"/><circle cx="22" cy="21" r="4" fill="#352336" stroke="#ef96c3" stroke-width="1"/><circle cx="42" cy="21" r="4" fill="#352336" stroke="#ef96c3" stroke-width="1"/><circle cx="23" cy="34" r="4" fill="#352336" stroke="#ef96c3" stroke-width="1"/><circle cx="41" cy="34" r="4" fill="#352336" stroke="#ef96c3" stroke-width="1"/></svg>