<svg xmlns="http://www.w3.org/2000/svg" viewBox="0 0 240 360"><defs><linearGradient id="rim" x2="1" y2="1"><stop stop-color="#ef96c3"/><stop offset=".25" stop-color="#deb34d"/><stop offset=".5" stop-color="#352336"/><stop offset=".77" stop-color="#deb34d"/><stop offset="1" stop-color="#ef96c3"/></linearGradient><pattern id="texture" width="32" height="32" patternUnits="userSpaceOnUse"><rect width="32" height="32" fill="#352336"/><path d="M16 27C-4 13 5 2 16 11C28 1 40 12 16 27Z" fill="#deb34d"/><circle cx="10" cy="14" r="2" fill="#ef96c3"/><circle cx="23" cy="14" r="2" fill="#ef96c3"/></pattern></defs><path d="M31 9H209Q231 9 231 31V329Q231 351 209 351H31Q9 351 9 329V31Q9 9 31 9Z" fill="none" stroke="#0d0a13" stroke-width="18"/><path d="M31 9H209Q231 9 231 31V329Q231 351 209 351H31Q9 351 9 329V31Q9 9 31 9Z" fill="none" stroke="url(#rim)" stroke-width="14"/><path d="M31 9H209Q231 9 231 31V329Q231 351 209 351H31Q9 351 9 329V31Q9 9 31 9Z" fill="none" stroke="url(#texture)" stroke-width="9"/><path d="M31 9H209Q231 9 231 31V329Q231 351 209 351H31Q9 351 9 329V31Q9 9 31 9Z" fill="none" stroke="#ef96c3" stroke-opacity=".3" stroke-width=".7"/><path d="M16 32L25 18L34 32" fill="none" stroke="#deb34d" stroke-width="2"/><circle cx="25" cy="25" r="2" fill="#ef96c3"/><path d="M206 32L215 18L224 32" fill="none" stroke="#deb34d" stroke-width="2"/><circle cx="215" cy="25" r="2" fill="#ef96c3"/><path d="M16 342L25 328L34 342" fill="none" stroke="#deb34d" stroke-width="2"/><circle cx="25" cy="335" r="2" fill="#ef96c3"/><path d="M206 342L215 328L224 342" fill="none" stroke="#deb34d" stroke-width="2"/><circle cx="215" cy="335" r="2" fill="#ef96c3"/></svg>