<svg xmlns="http://www.w3.org/2000/svg" viewBox="0 0 64 64"><defs><linearGradient id="metal" x2=".7" y2="1"><stop stop-color="#d5e0c9"/><stop offset=".24" stop-color="#68b482"/><stop offset=".68" stop-color="#68b482"/><stop offset="1" stop-color="#16231d"/></linearGradient><linearGradient id="light" x2=".6" y2="1"><stop stop-color="#fff9ec"/><stop offset=".55" stop-color="#d5e0c9"/><stop offset="1" stop-color="#68b482"/></linearGradient></defs><path d="M6 18Q32 12 58 18V47Q32 53 6 47Z" fill="url(#metal)" stroke="#d5e0c9" stroke-width="1.5" stroke-linejoin="round" stroke-linecap="round"/><path d="M14 26H8V39H14M50 26H57V39H50" fill="#16231d" stroke="#d5e0c9" stroke-width="1" stroke-linejoin="round" stroke-linecap="round"/><path d="M26 39C16 39 17 22 29 22C42 22 43 42 28 43L20 49M29 29C23 28 23 37 30 36C36 35 34 28 29 29M39 23L46 17L45 28" fill="none" stroke="#16231d" stroke-width="2.6" stroke-linejoin="round" stroke-linecap="round"/><circle cx="11" cy="21" r="1.5" fill="#d5e0c9" stroke="#16231d" stroke-width="1.5"/><circle cx="53" cy="21" r="1.5" fill="#d5e0c9" stroke="#16231d" stroke-width="1.5"/><circle cx="11" cy="44" r="1.5" fill="#d5e0c9" stroke="#16231d" stroke-width="1.5"/><circle cx="53" cy="44" r="1.5" fill="#d5e0c9" stroke="#16231d" stroke-width="1.5"/></svg>