<svg xmlns="http://www.w3.org/2000/svg" viewBox="0 0 64 64"><defs><linearGradient id="metal" x2=".7" y2="1"><stop stop-color="#f5c0a4"/><stop offset=".24" stop-color="#e66880"/><stop offset=".68" stop-color="#e66880"/><stop offset="1" stop-color="#311b2e"/></linearGradient><linearGradient id="light" x2=".6" y2="1"><stop stop-color="#fff9ec"/><stop offset=".55" stop-color="#f5c0a4"/><stop offset="1" stop-color="#e66880"/></linearGradient></defs><path d="M3 19Q32 24 61 19L56 26H8Z" fill="url(#metal)" stroke="#f5c0a4" stroke-width="1.5" stroke-linejoin="round" stroke-linecap="round"/><path d="M9 13Q32 18 55 13L48 20H16Z" fill="#311b2e" stroke="#e66880" stroke-width="2" stroke-linejoin="round" stroke-linecap="round"/><path d="M13 26H20V59H12ZM44 26H51L52 59H44Z" fill="url(#metal)" stroke="#311b2e" stroke-width="1.5" stroke-linejoin="round" stroke-linecap="round"/><path d="M23 33H41V55H23Z" fill="#311b2e" stroke="#f5c0a4" stroke-width="1" stroke-linejoin="round" stroke-linecap="round"/><path d="M25 36 29 39 25 42M39 36 35 39 39 42M28 49H36M27 30V25M37 30V25" fill="none" stroke="#e66880" stroke-width="2" stroke-linejoin="round" stroke-linecap="round"/><path d="M5 59H59" fill="none" stroke="#f5c0a4" stroke-width="2" stroke-linejoin="round" stroke-linecap="round"/></svg>