<svg xmlns="http://www.w3.org/2000/svg" viewBox="0 0 64 64"><defs><linearGradient id="metal" x2=".7" y2="1"><stop stop-color="#f3d782"/><stop offset=".24" stop-color="#f2a8cf"/><stop offset=".68" stop-color="#f2a8cf"/><stop offset="1" stop-color="#352141"/></linearGradient><linearGradient id="light" x2=".6" y2="1"><stop stop-color="#fff9ec"/><stop offset=".55" stop-color="#f3d782"/><stop offset="1" stop-color="#f2a8cf"/></linearGradient></defs><path d="M28 43 10 34 2 44 15 48 13 60 32 49 50 60 49 48 62 44 54 34 36 43Z" fill="url(#metal)" stroke="#352141" stroke-width="1.5" stroke-linejoin="round" stroke-linecap="round"/><circle cx="32" cy="29" r="22" fill="url(#light)" stroke="#352141" stroke-width="2"/><path d="M36 12A17 17 0 1 0 48 35A14 14 0 0 1 36 12Z" fill="#f3d782" stroke="#352141" stroke-width="1.5" stroke-linejoin="round" stroke-linecap="round"/><path d="M32 21 39 28 32 35 25 28Z" fill="url(#light)" stroke="#f3d782" stroke-width="1" stroke-linejoin="round" stroke-linecap="round"/><circle cx="15" cy="29" r="3" fill="#f2a8cf" stroke="#352141" stroke-width="1"/><circle cx="49" cy="29" r="3" fill="#f2a8cf" stroke="#352141" stroke-width="1"/><circle cx="32" cy="12" r="3" fill="#f2a8cf" stroke="#352141" stroke-width="1"/><circle cx="32" cy="46" r="3" fill="#f2a8cf" stroke="#352141" stroke-width="1"/></svg>