<svg xmlns="http://www.w3.org/2000/svg" viewBox="0 0 240 360"><defs><linearGradient id="rim" x2="1" y2="1"><stop stop-color="#e8ce73"/><stop offset=".25" stop-color="#9fa9f4"/><stop offset=".5" stop-color="#222740"/><stop offset=".77" stop-color="#9fa9f4"/><stop offset="1" stop-color="#e8ce73"/></linearGradient><pattern id="texture" width="32" height="32" patternUnits="userSpaceOnUse"><rect width="32" height="32" fill="#222740"/><path d="M1 1 30 1 26 13H5ZM5 17H26L30 31H1Z" fill="#e8ce73"/><path d="M7 4H25M9 8H23M7 25H25" fill="none" stroke="#9fa9f4" stroke-width="2" stroke-linecap="round" stroke-linejoin="round"/></pattern></defs><path d="M28 9H212L231 28V332L212 351H28L9 332V28Z" fill="none" stroke="#0d0a13" stroke-width="18"/><path d="M28 9H212L231 28V332L212 351H28L9 332V28Z" fill="none" stroke="url(#rim)" stroke-width="14"/><path d="M28 9H212L231 28V332L212 351H28L9 332V28Z" fill="none" stroke="url(#texture)" stroke-width="9"/><path d="M28 9H212L231 28V332L212 351H28L9 332V28Z" fill="none" stroke="#e8ce73" stroke-opacity=".3" stroke-width=".7"/><path d="M16 32L25 18L34 32" fill="none" stroke="#9fa9f4" stroke-width="2"/><circle cx="25" cy="25" r="2" fill="#e8ce73"/><path d="M206 32L215 18L224 32" fill="none" stroke="#9fa9f4" stroke-width="2"/><circle cx="215" cy="25" r="2" fill="#e8ce73"/><path d="M16 342L25 328L34 342" fill="none" stroke="#9fa9f4" stroke-width="2"/><circle cx="25" cy="335" r="2" fill="#e8ce73"/><path d="M206 342L215 328L224 342" fill="none" stroke="#9fa9f4" stroke-width="2"/><circle cx="215" cy="335" r="2" fill="#e8ce73"/></svg>