<svg xmlns="http://www.w3.org/2000/svg" viewBox="0 0 64 64"><defs><linearGradient id="metal" x2=".7" y2="1"><stop stop-color="#ede6fa"/><stop offset=".24" stop-color="#ab8bd9"/><stop offset=".68" stop-color="#ab8bd9"/><stop offset="1" stop-color="#261e3b"/></linearGradient><linearGradient id="light" x2=".6" y2="1"><stop stop-color="#fff9ec"/><stop offset=".55" stop-color="#ede6fa"/><stop offset="1" stop-color="#ab8bd9"/></linearGradient></defs><g transform="rotate(-22 32 32)"><path d="M31 21H35V63H31Z" fill="url(#light)" stroke="#261e3b" stroke-width="1.5" stroke-linejoin="round" stroke-linecap="round"/><path d="M34 4Q57 8 60 28Q50 13 35 17V22H28V14Q29 8 34 4Z" fill="url(#metal)" stroke="#ede6fa" stroke-width="1.5" stroke-linejoin="round" stroke-linecap="round"/></g><ellipse cx="28" cy="33" rx="26" ry="9" fill="none" stroke="#ab8bd9" stroke-width="2"/><polygon fill="#ede6fa" points="9.00,3.00 10.52,6.91 14.71,7.15 11.45,9.80 12.53,13.85 9.00,11.58 5.47,13.85 6.55,9.80 3.29,7.15 7.48,6.91"/><polygon fill="#ede6fa" points="52.00,47.00 53.01,49.61 55.80,49.76 53.64,51.53 54.35,54.24 52.00,52.72 49.65,54.24 50.36,51.53 48.20,49.76 50.99,49.61"/><circle cx="27" cy="33" r="11" fill="none" stroke="#ede6fa" stroke-width="1"/></svg>