<svg xmlns="http://www.w3.org/2000/svg" viewBox="0 0 64 64"><defs><linearGradient id="metal" x2=".7" y2="1"><stop stop-color="#e5c879"/><stop offset=".24" stop-color="#ad87e3"/><stop offset=".68" stop-color="#ad87e3"/><stop offset="1" stop-color="#27203d"/></linearGradient><linearGradient id="light" x2=".6" y2="1"><stop stop-color="#fff9ec"/><stop offset=".55" stop-color="#e5c879"/><stop offset="1" stop-color="#ad87e3"/></linearGradient></defs><polygon fill="#e5c879" points="32.00,0.00 39.84,20.22 61.48,21.42 44.68,35.12 50.22,56.08 32.00,44.33 13.78,56.08 19.32,35.12 2.52,21.42 24.16,20.22"/><path d="M16 40V25Q16 19 22 21V14Q22 8 29 12V8Q34 2 39 10V15Q46 10 49 17V36L44 42V58H20V45Z" fill="url(#metal)" stroke="#27203d" stroke-width="2" stroke-linejoin="round" stroke-linecap="round"/><path d="M22 22V32M29 14V28M38 16V29M48 30 34 29 28 36 35 42M22 47H43" fill="none" stroke="#e5c879" stroke-width="1.5" stroke-linejoin="round" stroke-linecap="round"/></svg>