<svg xmlns="http://www.w3.org/2000/svg" viewBox="0 0 240 360"><defs><linearGradient id="rim" x2="1" y2="1"><stop stop-color="#e1dffa"/><stop offset=".25" stop-color="#a6adf7"/><stop offset=".5" stop-color="#19162c"/><stop offset=".77" stop-color="#a6adf7"/><stop offset="1" stop-color="#e1dffa"/></linearGradient><pattern id="texture" width="32" height="32" patternUnits="userSpaceOnUse"><rect width="32" height="32" fill="#19162c"/><path d="M0 2 29 0 9 7 32 9 16 14 29 18 2 25 28 25 18 32H0Z" fill="#a6adf7"/><path d="M5 9 24 4M12 21 30 19" fill="none" stroke="#e1dffa" stroke-width="0.7" stroke-linecap="round" stroke-linejoin="round"/></pattern></defs><path d="M31 9H209Q231 9 231 31V329Q231 351 209 351H31Q9 351 9 329V31Q9 9 31 9Z" fill="none" stroke="#0d0a13" stroke-width="18"/><path d="M31 9H209Q231 9 231 31V329Q231 351 209 351H31Q9 351 9 329V31Q9 9 31 9Z" fill="none" stroke="url(#rim)" stroke-width="14"/><path d="M31 9H209Q231 9 231 31V329Q231 351 209 351H31Q9 351 9 329V31Q9 9 31 9Z" fill="none" stroke="url(#texture)" stroke-width="9"/><path d="M31 9H209Q231 9 231 31V329Q231 351 209 351H31Q9 351 9 329V31Q9 9 31 9Z" fill="none" stroke="#e1dffa" stroke-opacity=".3" stroke-width=".7"/><path d="M16 32L25 18L34 32" fill="none" stroke="#a6adf7" stroke-width="2"/><circle cx="25" cy="25" r="2" fill="#e1dffa"/><path d="M206 32L215 18L224 32" fill="none" stroke="#a6adf7" stroke-width="2"/><circle cx="215" cy="25" r="2" fill="#e1dffa"/><path d="M16 342L25 328L34 342" fill="none" stroke="#a6adf7" stroke-width="2"/><circle cx="25" cy="335" r="2" fill="#e1dffa"/><path d="M206 342L215 328L224 342" fill="none" stroke="#a6adf7" stroke-width="2"/><circle cx="215" cy="335" r="2" fill="#e1dffa"/></svg>