<svg xmlns="http://www.w3.org/2000/svg" viewBox="0 0 240 360"><defs><linearGradient id="rim" x2="1" y2="1"><stop stop-color="#e8bd75"/><stop offset=".25" stop-color="#b8c9ce"/><stop offset=".5" stop-color="#223d40"/><stop offset=".77" stop-color="#b8c9ce"/><stop offset="1" stop-color="#e8bd75"/></linearGradient><pattern id="texture" width="32" height="32" patternUnits="userSpaceOnUse"><rect width="32" height="32" fill="#223d40"/><path d="M0 1 32 31M-8 1 24 31M8 1 40 31" fill="none" stroke="#e8bd75" stroke-width="1.8" stroke-linecap="round" stroke-linejoin="round"/><path d="M4 11H28V20H4Z" fill="#b8c9ce"/><path d="M7 13H25M7 17H25" fill="none" stroke="#223d40" stroke-width="1" stroke-linecap="round" stroke-linejoin="round"/></pattern></defs><path d="M31 9H209Q231 9 231 31V329Q231 351 209 351H31Q9 351 9 329V31Q9 9 31 9Z" fill="none" stroke="#0d0a13" stroke-width="18"/><path d="M31 9H209Q231 9 231 31V329Q231 351 209 351H31Q9 351 9 329V31Q9 9 31 9Z" fill="none" stroke="url(#rim)" stroke-width="14"/><path d="M31 9H209Q231 9 231 31V329Q231 351 209 351H31Q9 351 9 329V31Q9 9 31 9Z" fill="none" stroke="url(#texture)" stroke-width="9"/><path d="M31 9H209Q231 9 231 31V329Q231 351 209 351H31Q9 351 9 329V31Q9 9 31 9Z" fill="none" stroke="#e8bd75" stroke-opacity=".3" stroke-width=".7"/><path d="M16 32L25 18L34 32" fill="none" stroke="#b8c9ce" stroke-width="2"/><circle cx="25" cy="25" r="2" fill="#e8bd75"/><path d="M206 32L215 18L224 32" fill="none" stroke="#b8c9ce" stroke-width="2"/><circle cx="215" cy="25" r="2" fill="#e8bd75"/><path d="M16 342L25 328L34 342" fill="none" stroke="#b8c9ce" stroke-width="2"/><circle cx="25" cy="335" r="2" fill="#e8bd75"/><path d="M206 342L215 328L224 342" fill="none" stroke="#b8c9ce" stroke-width="2"/><circle cx="215" cy="335" r="2" fill="#e8bd75"/></svg>