<svg xmlns="http://www.w3.org/2000/svg" viewBox="0 0 64 64"><defs><linearGradient id="metal" x2=".7" y2="1"><stop stop-color="#e8c676"/><stop offset=".24" stop-color="#6cd9e7"/><stop offset=".68" stop-color="#6cd9e7"/><stop offset="1" stop-color="#1b3044"/></linearGradient><linearGradient id="light" x2=".6" y2="1"><stop stop-color="#fff9ec"/><stop offset=".55" stop-color="#e8c676"/><stop offset="1" stop-color="#6cd9e7"/></linearGradient></defs><circle cx="32" cy="32" r="29" fill="none" stroke="#e8c676" stroke-width="1.7"/><circle cx="32" cy="32" r="24" fill="none" stroke="#6cd9e7" stroke-width="2"/><path d="M32 7 54 45H10Z" fill="none" stroke="#e8c676" stroke-width="1.5" stroke-linejoin="round" stroke-linecap="round"/><path d="M32 57 10 19H54Z" fill="none" stroke="#6cd9e7" stroke-width="1.5" stroke-linejoin="round" stroke-linecap="round"/><circle cx="32" cy="32" r="10" fill="#1b3044" stroke="#e8c676" stroke-width="1.5"/><path d="M32 27 37 32 32 37 27 32Z" fill="url(#light)" stroke="#e8c676" stroke-width="1" stroke-linejoin="round" stroke-linecap="round"/><g transform="rotate(0 32 32)"><path d="M29 3H35M32 5V10" fill="none" stroke="#e8c676" stroke-width="1" stroke-linejoin="round" stroke-linecap="round"/></g><g transform="rotate(60 32 32)"><path d="M29 3H35M32 5V10" fill="none" stroke="#e8c676" stroke-width="1" stroke-linejoin="round" stroke-linecap="round"/></g><g transform="rotate(120 32 32)"><path d="M29 3H35M32 5V10" fill="none" stroke="#e8c676" stroke-width="1" stroke-linejoin="round" stroke-linecap="round"/></g><g transform="rotate(180 32 32)"><path d="M29 3H35M32 5V10" fill="none" stroke="#e8c676" stroke-width="1" stroke-linejoin="round" stroke-linecap="round"/></g><g transform="rotate(240 32 32)"><path d="M29 3H35M32 5V10" fill="none" stroke="#e8c676" stroke-width="1" stroke-linejoin="round" stroke-linecap="round"/></g><g transform="rotate(300 32 32)"><path d="M29 3H35M32 5V10" fill="none" stroke="#e8c676" stroke-width="1" stroke-linejoin="round" stroke-linecap="round"/></g></svg>